<svg width="130" height="40" viewBox="0 0 130 40" fill="none" xmlns="http://www.w3.org/2000/svg">
<g clip-path="url(#clip0_0_510)">
<circle cx="20" cy="20" r="19" fill="#F2F6FF" stroke="white" stroke-width="2"/>
<path d="M14.41 23.08C14.2033 23.08 14.0433 23.0233 13.93 22.91C13.8233 22.79 13.77 22.6267 13.77 22.42V16.52C13.77 16.3067 13.8233 16.1467 13.93 16.04C14.0433 15.9267 14.2033 15.87 14.41 15.87C14.6167 15.87 14.7733 15.9267 14.88 16.04C14.9933 16.1467 15.05 16.3067 15.05 16.52V19.07H15.07L17.94 16.19C18.0467 16.0833 18.1533 16.0033 18.26 15.95C18.3667 15.8967 18.4867 15.87 18.62 15.87C18.8133 15.87 18.95 15.92 19.03 16.02C19.1167 16.12 19.15 16.2367 19.13 16.37C19.1167 16.5033 19.0533 16.6267 18.94 16.74L16.02 19.63L16.03 19.05L19.08 22.15C19.22 22.2833 19.2933 22.4233 19.3 22.57C19.3067 22.7167 19.26 22.84 19.16 22.94C19.0667 23.0333 18.9267 23.08 18.74 23.08C18.58 23.08 18.45 23.0467 18.35 22.98C18.2567 22.9133 18.1467 22.8167 18.02 22.69L15.07 19.74H15.05V22.42C15.05 22.6267 14.9967 22.79 14.89 22.91C14.7833 23.0233 14.6233 23.08 14.41 23.08ZM21.0604 23.08C20.8537 23.08 20.6937 23.0233 20.5804 22.91C20.4737 22.79 20.4204 22.6267 20.4204 22.42V16.6C20.4204 16.3867 20.4771 16.2267 20.5904 16.12C20.7037 16.0067 20.8637 15.95 21.0704 15.95H23.4804C24.2537 15.95 24.8504 16.1367 25.2704 16.51C25.6904 16.8767 25.9004 17.3933 25.9004 18.06C25.9004 18.4933 25.8037 18.8667 25.6104 19.18C25.4237 19.4933 25.1504 19.7333 24.7904 19.9C24.4304 20.0667 23.9937 20.15 23.4804 20.15L23.5704 20H23.9004C24.1737 20 24.4104 20.0667 24.6104 20.2C24.8171 20.3333 24.9971 20.5433 25.1504 20.83L25.9004 22.22C25.9804 22.36 26.0171 22.4967 26.0104 22.63C26.0037 22.7633 25.9537 22.8733 25.8604 22.96C25.7671 23.04 25.6304 23.08 25.4504 23.08C25.2704 23.08 25.1237 23.0433 25.0104 22.97C24.8971 22.89 24.7971 22.77 24.7104 22.61L23.7004 20.75C23.5804 20.5233 23.4371 20.3733 23.2704 20.3C23.1104 20.22 22.9037 20.18 22.6504 20.18H21.7004V22.42C21.7004 22.6267 21.6471 22.79 21.5404 22.91C21.4337 23.0233 21.2737 23.08 21.0604 23.08ZM21.7004 19.23H23.2604C23.7204 19.23 24.0671 19.1367 24.3004 18.95C24.5404 18.7567 24.6604 18.47 24.6604 18.09C24.6604 17.7167 24.5404 17.4367 24.3004 17.25C24.0671 17.0567 23.7204 16.96 23.2604 16.96H21.7004V19.23Z" fill="#234CAD"/>
</g>
<g clip-path="url(#clip1_0_510)">
<circle cx="50" cy="20" r="19" fill="#F2F6FF" stroke="white" stroke-width="2"/>
<path d="M45.37 23.08C45.1833 23.08 45.04 23.0267 44.94 22.92C44.84 22.8133 44.79 22.6667 44.79 22.48V16.47C44.79 16.2767 44.8433 16.13 44.95 16.03C45.0567 15.9233 45.2033 15.87 45.39 15.87C45.5567 15.87 45.6867 15.9033 45.78 15.97C45.88 16.03 45.97 16.1367 46.05 16.29L48.52 20.86H48.2L50.67 16.29C50.75 16.1367 50.8367 16.03 50.93 15.97C51.0233 15.9033 51.1533 15.87 51.32 15.87C51.5067 15.87 51.65 15.9233 51.75 16.03C51.85 16.13 51.9 16.2767 51.9 16.47V22.48C51.9 22.6667 51.85 22.8133 51.75 22.92C51.6567 23.0267 51.5133 23.08 51.32 23.08C51.1333 23.08 50.99 23.0267 50.89 22.92C50.79 22.8133 50.74 22.6667 50.74 22.48V17.85H50.96L48.86 21.68C48.7933 21.7933 48.7233 21.8767 48.65 21.93C48.5767 21.9833 48.4767 22.01 48.35 22.01C48.2233 22.01 48.12 21.9833 48.04 21.93C47.96 21.87 47.89 21.7867 47.83 21.68L45.71 17.84H45.95V22.48C45.95 22.6667 45.9 22.8133 45.8 22.92C45.7067 23.0267 45.5633 23.08 45.37 23.08ZM53.1416 23.07C52.955 23.0767 52.8083 23.0267 52.7016 22.92C52.595 22.8133 52.5416 22.6767 52.5416 22.51C52.5416 22.3833 52.5816 22.2733 52.6616 22.18C52.735 22.08 52.845 22.0267 52.9916 22.02L53.2916 22C53.585 21.98 53.805 21.89 53.9516 21.73C54.105 21.5633 54.1816 21.3267 54.1816 21.02V16.52C54.1816 16.3067 54.235 16.1467 54.3416 16.04C54.455 15.9267 54.615 15.87 54.8216 15.87C55.0283 15.87 55.185 15.9267 55.2916 16.04C55.405 16.1467 55.4616 16.3067 55.4616 16.52V21.01C55.4616 21.43 55.385 21.7867 55.2316 22.08C55.085 22.3733 54.865 22.6033 54.5716 22.77C54.2783 22.93 53.915 23.0233 53.4816 23.05L53.1416 23.07Z" fill="#234CAD"/>
</g>
<g clip-path="url(#clip2_0_510)">
<circle cx="80" cy="20" r="19" fill="#F2F6FF" stroke="white" stroke-width="2"/>
<path d="M78.93 23.1C78.25 23.1 77.6533 22.95 77.14 22.65C76.6333 22.35 76.24 21.93 75.96 21.39C75.68 20.8433 75.54 20.2033 75.54 19.47C75.54 18.9167 75.62 18.42 75.78 17.98C75.94 17.5333 76.1667 17.1533 76.46 16.84C76.76 16.52 77.1167 16.2767 77.53 16.11C77.95 15.9367 78.4167 15.85 78.93 15.85C79.6167 15.85 80.2133 16 80.72 16.3C81.2267 16.5933 81.62 17.01 81.9 17.55C82.18 18.09 82.32 18.7267 82.32 19.46C82.32 20.0133 82.24 20.5133 82.08 20.96C81.92 21.4067 81.69 21.79 81.39 22.11C81.0967 22.43 80.74 22.6767 80.32 22.85C79.9067 23.0167 79.4433 23.1 78.93 23.1ZM78.93 22C79.3633 22 79.73 21.9 80.03 21.7C80.3367 21.5 80.57 21.21 80.73 20.83C80.8967 20.45 80.98 19.9967 80.98 19.47C80.98 18.67 80.8 18.05 80.44 17.61C80.0867 17.17 79.5833 16.95 78.93 16.95C78.5033 16.95 78.1367 17.05 77.83 17.25C77.5233 17.4433 77.2867 17.73 77.12 18.11C76.96 18.4833 76.88 18.9367 76.88 19.47C76.88 20.2633 77.06 20.8833 77.42 21.33C77.78 21.7767 78.2833 22 78.93 22ZM84.2616 23.08C84.0549 23.08 83.8949 23.0233 83.7816 22.91C83.6749 22.79 83.6216 22.6267 83.6216 22.42V16.53C83.6216 16.3167 83.6749 16.1533 83.7816 16.04C83.8949 15.9267 84.0549 15.87 84.2616 15.87C84.4682 15.87 84.6249 15.9267 84.7316 16.04C84.8449 16.1533 84.9016 16.3167 84.9016 16.53V22.42C84.9016 22.6267 84.8482 22.79 84.7416 22.91C84.6349 23.0233 84.4749 23.08 84.2616 23.08Z" fill="#234CAD"/>
</g>
<g clip-path="url(#clip3_0_510)">
<circle cx="110" cy="20" r="19" fill="#F2F6FF" stroke="white" stroke-width="2"/>
<path d="M107 22.68C106.853 22.68 106.74 22.64 106.66 22.56C106.58 22.4733 106.54 22.3567 106.54 22.21V20.57H104.93C104.79 20.57 104.68 20.5333 104.6 20.46C104.52 20.38 104.48 20.27 104.48 20.13C104.48 19.99 104.52 19.8833 104.6 19.81C104.68 19.73 104.79 19.69 104.93 19.69H106.54V18.1C106.54 17.9533 106.58 17.84 106.66 17.76C106.74 17.68 106.857 17.64 107.01 17.64C107.157 17.64 107.267 17.68 107.34 17.76C107.42 17.84 107.46 17.9533 107.46 18.1V19.69H109.07C109.217 19.69 109.327 19.73 109.4 19.81C109.48 19.8833 109.52 19.99 109.52 20.13C109.52 20.27 109.48 20.38 109.4 20.46C109.327 20.5333 109.217 20.57 109.07 20.57H107.46V22.21C107.46 22.3567 107.42 22.4733 107.34 22.56C107.267 22.64 107.153 22.68 107 22.68ZM112.856 23.1C112.496 23.1 112.123 23.0533 111.736 22.96C111.349 22.8667 111.013 22.7267 110.726 22.54C110.593 22.4533 110.503 22.3533 110.456 22.24C110.409 22.1267 110.396 22.02 110.416 21.92C110.443 21.8133 110.493 21.7233 110.566 21.65C110.646 21.5767 110.743 21.5333 110.856 21.52C110.976 21.5067 111.106 21.5367 111.246 21.61C111.519 21.7567 111.783 21.8633 112.036 21.93C112.289 21.99 112.549 22.02 112.816 22.02C113.109 22.02 113.356 21.98 113.556 21.9C113.756 21.82 113.906 21.7 114.006 21.54C114.113 21.38 114.166 21.1867 114.166 20.96C114.166 20.6267 114.053 20.38 113.826 20.22C113.606 20.0533 113.283 19.97 112.856 19.97H112.216C112.029 19.97 111.886 19.9233 111.786 19.83C111.693 19.7367 111.646 19.6067 111.646 19.44C111.646 19.2733 111.693 19.1433 111.786 19.05C111.886 18.9567 112.029 18.91 112.216 18.91H112.736C112.989 18.91 113.206 18.87 113.386 18.79C113.566 18.7033 113.706 18.5833 113.806 18.43C113.906 18.2767 113.956 18.09 113.956 17.87C113.956 17.5633 113.853 17.33 113.646 17.17C113.446 17.01 113.153 16.93 112.766 16.93C112.519 16.93 112.286 16.96 112.066 17.02C111.853 17.0733 111.616 17.1767 111.356 17.33C111.236 17.4033 111.119 17.4333 111.006 17.42C110.899 17.4067 110.809 17.3633 110.736 17.29C110.663 17.2167 110.613 17.13 110.586 17.03C110.559 16.9233 110.566 16.8167 110.606 16.71C110.646 16.5967 110.729 16.5 110.856 16.42C111.143 16.2333 111.459 16.0933 111.806 16C112.153 15.9 112.509 15.85 112.876 15.85C113.363 15.85 113.779 15.9267 114.126 16.08C114.473 16.2267 114.736 16.44 114.916 16.72C115.103 16.9933 115.196 17.3267 115.196 17.72C115.196 18 115.143 18.2567 115.036 18.49C114.929 18.7167 114.779 18.91 114.586 19.07C114.393 19.23 114.159 19.3433 113.886 19.41V19.29C114.366 19.37 114.739 19.57 115.006 19.89C115.273 20.2033 115.406 20.5967 115.406 21.07C115.406 21.4833 115.303 21.8433 115.096 22.15C114.889 22.4567 114.596 22.6933 114.216 22.86C113.836 23.02 113.383 23.1 112.856 23.1Z" fill="#234CAD"/>
</g>
<defs>
<clipPath id="clip0_0_510">
<rect width="40" height="40" fill="white"/>
</clipPath>
<clipPath id="clip1_0_510">
<rect width="40" height="40" fill="white" transform="translate(30)"/>
</clipPath>
<clipPath id="clip2_0_510">
<rect width="40" height="40" fill="white" transform="translate(60)"/>
</clipPath>
<clipPath id="clip3_0_510">
<rect width="40" height="40" fill="white" transform="translate(90)"/>
</clipPath>
</defs>
</svg>
